<svg xmlns="http://www.w3.org/2000/svg" viewBox="0 0 512 512">
	<defs>
		<linearGradient id="igGrad" x1="0" x2="1" y1="0" y2="1">
			<stop offset="0%" stop-color="#feda75" />
			<stop offset="30%" stop-color="#fa7e1e" />
			<stop offset="60%" stop-color="#d62976" />
			<stop offset="100%" stop-color="#962fbf" />
		</linearGradient>
	</defs>
	<rect width="512" height="512" rx="100" fill="url(#igGrad)"/>
	<path d="M349.33 172.04c-4.42-10.56-11.84-19.98-22.4-24.4-15.52-6.48-52.32-5-69.93-5-17.62 0-54.41-1.48-69.93 5-10.56 4.42-17.98 13.84-22.4 24.4-6.48 15.52-5 52.32-5 69.93s-1.48 54.41 5 69.93c4.42 10.56 11.84 19.98 22.4 24.4 15.52 6.48 52.32 5 69.93 5s54.41 1.48 69.93-5c10.56-4.42 17.98-13.84 22.4-24.4 6.48-15.52 5-52.32 5-69.93s1.48-54.41-5-69.93z" fill="#fff" opacity="0.95"/>
	<circle cx="256" cy="256" r="70" fill="#fff"/>
	<circle cx="382" cy="130" r="18" fill="#fff"/>
</svg>