<svg xmlns="http://www.w3.org/2000/svg" viewBox="0 0 100 100" preserveAspectRatio="xMidYMid meet">
	<rect width="100" height="100" rx="18" fill="#FFFC00"/>
	<path d="M69.3 57.6c-.6-1.8-1.6-3.4-3.1-4.6-1.9-1.6-3.8-1.6-6.1-1.1-2.4.5-4.5 1.6-6.8 2.3-1.1.3-2.4.6-3.6.6-1.3 0-2.7-.3-3.9-.6-2.2-.8-4.3-1.9-6.7-2.4-2.3-.6-4.4-.5-6.3 1.1-1.5 1.2-2.5 2.9-3.2 4.7-.4 1-.5 2.3-.2 3.4.5 1.9 3 2.8 4.7 1.9 1.5-.8 3.1-1.4 4.8-1.3 1.8.1 3.3 1 4.9 1.9 1.3.7 2.7 1.4 4.2 1.6 1.6.2 3.3-.1 4.8-.6 1.7-.6 3.2-1.6 4.8-2.4 1.4-.7 3.1-1.1 4.6-.3 1.6.8 3 0 3.7-1.5.4-.9.3-2 .1-2.9z" fill="#fff"/>
</svg>