<svg xmlns="http://www.w3.org/2000/svg" viewBox="0 0 48 48">
	<path fill="#25F4EE" d="M29 12.5v13.76c-1.4-.06-2.78-.2-4.12-.43-1.45-.25-2.83-.61-4.02-1.12-1.06-.45-1.95-1.01-2.96-1.76-1.05-.79-1.9-1.74-2.61-2.83-.73-1.12-1.1-2.35-1.1-3.7 0-1.22.26-2.35.78-3.4.52-1.06 1.27-1.98 2.26-2.75 1-.79 2.16-1.36 3.5-1.72 1.4-.38 2.87-.55 4.4-.53V12.5h4. -1z"/>
	<path fill="#EE1D52" d="M33.5 9.2c-.1-.07-.2-.12-.3-.18-1.33-.73-2.86-1.07-4.5-1.07V20.9c-1.35-.07-2.7-.31-4.03-.72-1.34-.41-2.61-1-3.76-1.8-.92-.66-1.72-1.43-2.48-2.32v.04c.74.86 1.54 1.62 2.46 2.28 1.15.81 2.41 1.41 3.75 1.82 1.33.4 2.68.62 4.03.69V9.38c1.38 0 2.7.23 3.93.68.1.05.2.1.3.17v-.03z"/>
	<path fill="#010101" d="M36 14.5c-3.1 0-5.6-2.5-5.6-5.6V6h-3v20.6c-1.4-.06-2.78-.2-4.12-.43-1.45-.25-2.83-.61-4.02-1.12v3.1c1.1.58 2.23 1.02 3.39 1.33 1.51.4 3.05.63 4.62.69V14.5c.73.04 1.46.08 2.2.08 1.86 0 3.63-.22 5.27-.63V14.5z"/>
</svg>